<svg width="377" height="80" viewBox="0 0 377 80" fill="none" xmlns="http://www.w3.org/2000/svg">
<g clip-path="url(#clip0_2010_593)">
<path fill-rule="evenodd" clip-rule="evenodd" d="M112.741 42.7165C112.741 42.2893 112.846 41.8258 112.947 41.4147C113.557 39.0086 115.617 37.461 117.802 37.461C121.199 37.461 123.041 40.4837 123.041 43.9981C123.041 48.0323 121.078 50.8172 117.677 50.8172C115.403 50.8172 113.456 49.3018 112.882 47.061C112.789 46.65 112.741 46.2107 112.741 45.7593V42.7165ZM109.554 60.127H112.741V50.5472H112.814C113.868 52.2963 115.896 53.32 118.251 53.32C122.387 53.32 126.277 50.1925 126.277 43.849C126.277 38.5049 123.057 34.918 118.788 34.918C115.92 34.918 113.807 36.1714 112.523 38.3195H112.45L112.272 35.321H109.404C109.493 36.9814 109.554 38.8112 109.554 41.056V60.1311V60.127Z" fill="white"/>
<path fill-rule="evenodd" clip-rule="evenodd" d="M133.422 42.7367C133.422 42.382 133.471 42.0273 133.535 41.713C133.891 40.0969 135.272 38.9805 136.799 38.9805C139.376 38.9805 140.616 41.1649 140.616 43.9377C140.616 47.1417 139.146 48.9754 136.787 48.9754C135.163 48.9754 133.887 47.8188 133.519 46.3397C133.454 46.0495 133.422 45.719 133.422 45.3644V42.7407M127.872 47.6011C127.872 49.6243 127.803 51.7442 127.727 52.9251H132.437L132.671 50.4425H132.748C133.992 52.5543 136.003 53.3241 138.088 53.3241C142.179 53.3241 146.255 50.12 146.255 43.6999C146.295 38.243 143.177 34.7044 138.887 34.7044C136.411 34.7044 134.557 35.6959 133.499 37.2273H133.426V27.0752H127.872V47.5971V47.6011Z" fill="#8CC540"/>
<path fill-rule="evenodd" clip-rule="evenodd" d="M150.617 32.786C152.536 32.786 153.76 31.4842 153.752 29.8278C153.732 28.1432 152.532 26.8857 150.63 26.8857C148.727 26.8857 147.499 28.1512 147.503 29.8278C147.495 31.4842 148.715 32.786 150.577 32.786H150.613M147.85 52.925H153.409V35.1074H147.85V52.925Z" fill="#8CC540"/>
<path fill-rule="evenodd" clip-rule="evenodd" d="M164.311 49.3661C161.98 49.3661 160.691 47.0567 160.691 44.018C160.691 41.3782 161.705 38.6658 164.351 38.6658C166.997 38.6658 167.877 41.3661 167.877 43.9938C167.877 47.2059 166.508 49.3701 164.343 49.3701H164.307M164.262 53.3237C169.012 53.3237 173.633 50.3494 173.633 43.8366C173.633 38.4562 170.006 34.7041 164.545 34.7041C158.805 34.7041 155.004 38.3918 155.004 44.1429C155.004 49.894 159.031 53.3197 164.226 53.3197H164.262V53.3237Z" fill="#8CC540"/>
<path d="M92.9483 52.9251H96.1394V42.2812C96.1394 41.6928 96.1879 41.2052 96.3575 40.7538C96.9715 39.0208 98.5832 37.5578 100.684 37.5578C103.689 37.5578 104.767 39.9437 104.767 42.785V52.921H107.958V42.4344C107.958 36.3608 104.19 34.918 101.811 34.918C100.595 34.918 99.4678 35.2525 98.5226 35.8047C97.5491 36.3447 96.7453 37.1669 96.2161 38.0656H96.1434V27.0752H92.9524V52.921" fill="white"/>
<path fill-rule="evenodd" clip-rule="evenodd" d="M41.6856 75.2202C22.1879 75.2202 6.38209 59.4539 6.38209 40C6.38209 20.5461 22.1879 4.77985 41.6856 4.77985C54.1791 4.77985 65.1539 11.2524 71.4269 21.0257C72.3035 20.2841 73.2285 19.6071 74.2019 18.9904C67.1412 7.59295 54.5023 0 40.086 0C17.9466 0 0 17.9103 0 40C0 62.0897 17.9466 80 40.086 80C54.5023 80 67.1412 72.4071 74.2019 61.0096C73.2285 60.393 72.3035 59.7159 71.4269 58.9743C65.1539 68.7476 54.1791 75.2202 41.6856 75.2202Z" fill="#8CC540"/>
<path fill-rule="evenodd" clip-rule="evenodd" d="M80.1761 39.9998C80.1761 47.7056 77.9908 54.9036 74.2019 61.0094C73.2285 60.3928 72.3035 59.7157 71.4269 58.9741C74.9411 53.497 76.981 46.9842 76.981 39.9998C76.981 33.0154 74.9411 26.5026 71.4269 21.0255C72.3035 20.2839 73.2285 19.6069 74.2019 18.9902C77.9908 25.096 80.1761 32.294 80.1761 39.9998Z" fill="white"/>
<path d="M287.121 28.9126H286.035V25.088L282.04 20.0381H283.397L286.608 24.3383L289.848 20.0381H291.112L287.117 25.088V28.9126H287.121Z" fill="white"/>
<path d="M295.123 28.1106H300.839V28.9126H294.041V20.0381H300.657V20.8401H295.123V23.887H300.294V24.689H295.123V28.1106Z" fill="white"/>
<path d="M304.398 28.9126H303.206L307.819 20.0381H308.873L313.458 28.9126H312.25L311.075 26.5832H305.557L304.398 28.9126ZM305.965 25.7529H310.667L308.316 21.0416L305.965 25.7529Z" fill="white"/>
<path d="M317.618 28.9126H316.532V20.0381H319.666C320.187 20.0381 320.672 20.0784 321.12 20.163C321.569 20.2477 321.956 20.3807 322.28 20.5701C322.607 20.7595 322.861 21.0013 323.039 21.3036C323.221 21.6058 323.31 21.9726 323.31 22.4079C323.31 22.7343 323.241 23.0285 323.1 23.2985C322.958 23.5645 322.768 23.7983 322.526 23.9958C322.284 24.1932 321.997 24.3504 321.666 24.4673C321.334 24.5842 320.971 24.6608 320.579 24.693L323.701 28.9167H322.376L319.42 24.7696H317.61V28.9167L317.618 28.9126ZM317.618 23.9877H319.505C320.377 23.9877 321.052 23.8547 321.524 23.5927C321.997 23.3308 322.231 22.9358 322.231 22.4079C322.231 22.1137 322.166 21.8678 322.033 21.6703C321.904 21.4688 321.722 21.3076 321.492 21.1827C321.262 21.0577 320.979 20.965 320.648 20.9086C320.316 20.8522 319.949 20.8199 319.549 20.8199H317.618V23.9917V23.9877Z" fill="white"/>
<path d="M332.24 21.4687C332.01 21.2027 331.711 20.9851 331.352 20.8238C330.988 20.6626 330.552 20.578 330.039 20.578C329.776 20.578 329.51 20.6102 329.239 20.6788C328.969 20.7473 328.722 20.848 328.5 20.9851C328.278 21.1221 328.1 21.2954 327.963 21.505C327.825 21.7145 327.761 21.9604 327.761 22.2425C327.761 22.5246 327.825 22.7624 327.955 22.9437C328.084 23.1291 328.258 23.2823 328.472 23.4153C328.686 23.5442 328.932 23.6531 329.207 23.7337C329.482 23.8143 329.772 23.8989 330.071 23.9835C330.443 24.0843 330.815 24.1931 331.19 24.31C331.566 24.4269 331.905 24.58 332.204 24.7694C332.503 24.9589 332.749 25.1966 332.939 25.4828C333.129 25.773 333.226 26.1357 333.226 26.579C333.226 27.0223 333.125 27.4052 332.919 27.7276C332.717 28.05 332.45 28.316 332.127 28.5256C331.804 28.7352 331.433 28.8883 331.017 28.9891C330.6 29.0898 330.18 29.1382 329.756 29.1382C329.433 29.1382 329.114 29.11 328.791 29.0576C328.468 29.0012 328.161 28.9206 327.87 28.8118C327.579 28.7029 327.308 28.5659 327.058 28.3966C326.808 28.2314 326.585 28.038 326.396 27.8203L327.329 27.244C327.559 27.5624 327.882 27.8284 328.302 28.042C328.718 28.2556 329.211 28.3604 329.772 28.3604C330.043 28.3604 330.322 28.3241 330.6 28.2556C330.883 28.183 331.138 28.0742 331.36 27.9291C331.586 27.7841 331.772 27.6027 331.917 27.3891C332.063 27.1755 332.135 26.9256 332.135 26.6435C332.135 26.3332 332.063 26.0793 331.917 25.8737C331.772 25.6682 331.578 25.4989 331.336 25.3579C331.093 25.2208 330.819 25.1039 330.508 25.0113C330.197 24.9186 329.869 24.8259 329.526 24.7372C329.175 24.6445 328.827 24.5397 328.484 24.4228C328.141 24.306 327.834 24.1528 327.563 23.9634C327.292 23.774 327.074 23.5443 326.909 23.2662C326.743 22.9921 326.658 22.6536 326.658 22.2505C326.658 21.8233 326.763 21.4566 326.969 21.1463C327.175 20.8359 327.446 20.582 327.777 20.3805C328.108 20.179 328.476 20.0339 328.876 19.9412C329.28 19.8485 329.675 19.8042 330.067 19.8042C330.79 19.8042 331.408 19.909 331.921 20.1226C332.434 20.3362 332.822 20.5901 333.081 20.8803L332.22 21.4566L332.24 21.4687Z" fill="white"/>
<path d="M284.54 43.9532H283.454V35.0786H284.54V43.9532Z" fill="white"/>
<path d="M294.162 42.4257H294.178L297.753 35.0786H299.413V43.9532H298.326V36.2433H298.298L294.441 43.9532H293.867L290.01 36.2433H289.981V43.9532H288.895V35.0786H290.555L294.174 42.4257H294.162Z" fill="white"/>
<path d="M303.747 35.0787H306.761C307.302 35.0787 307.795 35.1271 308.239 35.2238C308.679 35.3206 309.059 35.4656 309.378 35.6631C309.693 35.8606 309.939 36.1064 310.109 36.4007C310.279 36.6989 310.364 37.0455 310.364 37.4485C310.364 37.8515 310.275 38.1981 310.101 38.4964C309.923 38.7946 309.677 39.0405 309.362 39.2339C309.047 39.4314 308.663 39.5805 308.215 39.6772C307.766 39.778 307.274 39.8263 306.728 39.8263H304.83V43.9493H303.743V35.0747L303.747 35.0787ZM304.834 39.0646H306.672C307.524 39.0646 308.174 38.9276 308.615 38.6495C309.055 38.3755 309.277 37.9724 309.277 37.4445C309.277 36.9165 309.047 36.4893 308.59 36.2354C308.134 35.9815 307.492 35.8525 306.668 35.8525H304.83V39.0606L304.834 39.0646Z" fill="white"/>
<path d="M315.086 43.9532H313.999V35.0786H317.133C317.655 35.0786 318.139 35.1189 318.588 35.2035C319.036 35.2882 319.424 35.4212 319.747 35.6106C320.074 35.8 320.329 36.0418 320.506 36.3441C320.688 36.6464 320.777 37.0131 320.777 37.4484C320.777 37.7748 320.708 38.069 320.567 38.3391C320.425 38.6051 320.236 38.8388 319.993 39.0363C319.751 39.2338 319.464 39.391 319.133 39.5078C318.802 39.6247 318.438 39.7013 318.046 39.7335L321.169 43.9572H319.844L316.887 39.8101H315.077V43.9572L315.086 43.9532ZM315.086 39.0282H316.972C317.844 39.0282 318.519 38.8952 318.992 38.6333C319.464 38.3713 319.698 37.9763 319.698 37.4484C319.698 37.1542 319.634 36.9083 319.5 36.7109C319.371 36.5093 319.189 36.3481 318.959 36.2232C318.729 36.0983 318.446 36.0056 318.115 35.9491C317.784 35.8927 317.416 35.8605 317.016 35.8605H315.086V39.0323V39.0282Z" fill="white"/>
<path d="M335.092 39.5159C335.092 40.193 334.951 40.8136 334.672 41.3819C334.389 41.9501 334.002 42.4418 333.505 42.8529C333.008 43.268 332.418 43.5904 331.74 43.8242C331.061 44.0579 330.326 44.1748 329.53 44.1748C328.734 44.1748 327.999 44.0579 327.321 43.8242C326.642 43.5904 326.056 43.268 325.555 42.8529C325.059 42.4378 324.667 41.9501 324.388 41.3819C324.105 40.8136 323.968 40.1889 323.968 39.5159C323.968 38.8428 324.109 38.2181 324.388 37.6499C324.671 37.0816 325.059 36.5899 325.555 36.1788C326.052 35.7637 326.642 35.4413 327.321 35.2076C327.999 34.9738 328.734 34.8569 329.53 34.8569C330.326 34.8569 331.061 34.9738 331.74 35.2076C332.418 35.4413 333.008 35.7637 333.505 36.1788C334.002 36.594 334.393 37.0816 334.672 37.6499C334.955 38.2181 335.092 38.8428 335.092 39.5159ZM333.945 39.5239C333.945 39.0081 333.844 38.5164 333.642 38.0489C333.44 37.5814 333.149 37.1703 332.77 36.8156C332.386 36.461 331.921 36.1788 331.376 35.9693C330.827 35.7597 330.213 35.6549 329.53 35.6549C328.847 35.6549 328.229 35.7597 327.684 35.9693C327.135 36.1788 326.67 36.461 326.291 36.8156C325.907 37.1703 325.616 37.5814 325.418 38.0489C325.216 38.5164 325.115 39.0081 325.115 39.5239C325.115 40.0398 325.216 40.5355 325.418 40.999C325.62 41.4665 325.911 41.8736 326.291 42.2242C326.67 42.5748 327.139 42.8529 327.684 43.0625C328.229 43.272 328.847 43.3768 329.53 43.3768C330.213 43.3768 330.831 43.272 331.376 43.0625C331.925 42.8529 332.39 42.5748 332.77 42.2242C333.153 41.8736 333.444 41.4665 333.642 40.999C333.844 40.5315 333.945 40.0398 333.945 39.5239Z" fill="white"/>
<path d="M341.951 42.7884H341.979L345.445 35.0786H346.604L342.52 43.9532H341.373L337.302 35.0786H338.477L341.943 42.7884H341.951Z" fill="white"/>
<path d="M350.664 43.9532H349.577V35.0786H350.664V43.9532Z" fill="white"/>
<path d="M362.572 42.6397H362.6V35.083H363.686V43.9576H362.329L356.117 36.3243H356.089V43.9576H355.002V35.083H356.359L362.572 42.6397Z" fill="white"/>
<path d="M376.127 36.683C375.756 36.3565 375.316 36.1026 374.803 35.9253C374.29 35.7439 373.704 35.6553 373.037 35.6553C372.371 35.6553 371.737 35.7601 371.191 35.9696C370.642 36.1792 370.178 36.4613 369.798 36.816C369.414 37.1706 369.123 37.5817 368.917 38.0492C368.711 38.5167 368.61 39.0084 368.61 39.5243C368.61 40.0402 368.711 40.5359 368.917 40.9994C369.123 41.4669 369.418 41.8739 369.798 42.2246C370.182 42.5752 370.646 42.8533 371.191 43.0628C371.737 43.2724 372.355 43.3772 373.037 43.3772C373.639 43.3772 374.193 43.3208 374.698 43.216C375.198 43.1072 375.606 42.9701 375.917 42.8009V40.1047H373.429V39.3026H377.004V43.3127C376.422 43.6069 375.792 43.8246 375.118 43.9656C374.443 44.1067 373.744 44.1792 373.021 44.1792C372.217 44.1792 371.474 44.0623 370.792 43.8286C370.109 43.5948 369.519 43.2724 369.026 42.8573C368.534 42.4422 368.15 41.9545 367.871 41.3863C367.592 40.818 367.455 40.1933 367.455 39.5203C367.455 38.8472 367.596 38.2225 367.875 37.6543C368.158 37.086 368.546 36.5943 369.043 36.1832C369.539 35.7681 370.129 35.4457 370.808 35.212C371.486 34.9782 372.221 34.8613 373.017 34.8613C373.869 34.8613 374.617 34.9661 375.247 35.1797C375.877 35.3933 376.422 35.6875 376.875 36.0664L376.119 36.6951L376.127 36.683Z" fill="white"/>
<path d="M284.54 58.1922H289.517V58.9942H283.458V50.1196H284.544V58.1922H284.54Z" fill="white"/>
<path d="M293.738 58.9942H292.651V50.1196H293.738V58.9942Z" fill="white"/>
<path d="M301.352 57.8295H301.38L304.846 50.1196H306.005L301.921 58.9942H300.774L296.703 50.1196H297.878L301.344 57.8295H301.352Z" fill="white"/>
<path d="M310.065 58.1922H315.78V58.9942H308.982V50.1196H315.599V50.9216H310.065V53.9685H315.235V54.7705H310.065V58.1922Z" fill="white"/>
<path d="M324.582 51.5502C324.352 51.2842 324.053 51.0666 323.693 50.9054C323.33 50.7442 322.894 50.6595 322.381 50.6595C322.118 50.6595 321.851 50.6918 321.581 50.7603C321.31 50.8288 321.064 50.9296 320.842 51.0666C320.619 51.2036 320.442 51.3769 320.304 51.5865C320.167 51.7961 320.102 52.0419 320.102 52.324C320.102 52.6061 320.167 52.8439 320.296 53.0253C320.426 53.2107 320.599 53.3638 320.813 53.4968C321.027 53.6258 321.274 53.7346 321.548 53.8152C321.823 53.8958 322.114 53.9805 322.413 54.0651C322.784 54.1658 323.156 54.2747 323.532 54.3915C323.907 54.5084 324.247 54.6616 324.546 54.851C324.845 55.0404 325.091 55.2782 325.281 55.5643C325.471 55.8545 325.568 56.2172 325.568 56.6606C325.568 57.1039 325.467 57.4868 325.261 57.8092C325.059 58.1316 324.792 58.3976 324.469 58.6072C324.146 58.8167 323.774 58.9699 323.358 59.0706C322.942 59.1714 322.522 59.2197 322.098 59.2197C321.775 59.2197 321.456 59.1915 321.132 59.1391C320.809 59.0827 320.502 59.0021 320.211 58.8933C319.921 58.7845 319.65 58.6475 319.4 58.4782C319.149 58.313 318.927 58.1195 318.737 57.9019L319.67 57.3255C319.9 57.6439 320.224 57.9099 320.644 58.1235C321.06 58.3371 321.553 58.4419 322.114 58.4419C322.385 58.4419 322.663 58.4056 322.942 58.3371C323.225 58.2646 323.479 58.1558 323.701 58.0107C323.928 57.8656 324.113 57.6842 324.259 57.4706C324.404 57.257 324.477 57.0072 324.477 56.725C324.477 56.4147 324.404 56.1608 324.259 55.9553C324.113 55.7497 323.92 55.5805 323.677 55.4394C323.435 55.3024 323.16 55.1855 322.849 55.0928C322.538 55.0001 322.211 54.9074 321.868 54.8187C321.516 54.726 321.169 54.6213 320.825 54.5044C320.482 54.3875 320.175 54.2344 319.904 54.0449C319.634 53.8555 319.416 53.6258 319.25 53.3477C319.084 53.0737 319 52.7351 319 52.3321C319 51.9049 319.105 51.5381 319.311 51.2278C319.517 50.9175 319.787 50.6636 320.119 50.4621C320.45 50.2606 320.817 50.1155 321.217 50.0228C321.621 49.9301 322.017 49.8857 322.409 49.8857C323.132 49.8857 323.75 49.9905 324.263 50.2041C324.776 50.4177 325.164 50.6716 325.422 50.9618L324.562 51.5381L324.582 51.5502Z" fill="white"/>
<path d="M257.732 19.8004C246.793 19.8004 237.891 28.679 237.891 39.5969C237.891 43.5142 239.042 47.1697 241.017 50.2447H231.496V34.2487H230.511V50.2447H206.012L237.814 15.1052L237.083 14.4482L203.795 51.2281H230.511V58.8613H231.496V51.2281H241.687C245.299 56.1732 251.139 59.3933 257.728 59.3933C268.666 59.3933 277.569 50.5147 277.569 39.5969C277.569 28.679 268.67 19.8004 257.728 19.8004H257.732ZM257.732 58.3011C251.798 58.3011 246.498 55.5324 243.061 51.2241H250.126V50.2407H242.326C240.217 47.218 238.981 43.5465 238.981 39.5928C238.981 29.2795 247.391 20.8845 257.732 20.8845C268.072 20.8845 276.482 29.2754 276.482 39.5928C276.482 49.9102 268.072 58.3011 257.732 58.3011Z" fill="white"/>
<path d="M189.601 12.5137H188.761V70.3474H189.601V12.5137Z" fill="white"/>
</g>
<defs>
<clipPath id="clip0_2010_593">
<rect width="377" height="80" fill="white"/>
</clipPath>
</defs>
</svg>
